# xmcd
#
# Track frame offsets: 
#        150
#        16687
#        32667
#        46410
#        58627
#        74637
#        88965
#        104145
#        117770
#        130640
#
# Disc length: 1908 seconds
#
# Revision: 1
# Processed by: cddbd v1.5.2PL0 Copyright (c) Steve Scherf et al.
# Submitted via: ExactAudioCopy v0.99pb4
#
DISCID=8807720a
DTITLE=Linda Ronstadt - Linda Ronstadt
DYEAR=1971
DGENRE=CountryRock
TTITLE0=Rock Me On The Water
TTITLE1=Crazy Arms
TTITLE2=I Won't Be Hangin' Round
TTITLE3=I Still Miss Someone
TTITLE4=In My Reply
TTITLE5=I Fall To Pieces
TTITLE6=Ramblin' 'round
TTITLE7=Birds
TTITLE8=I Ain't Always Been Faithful
TTITLE9=Rescue Me
EXTD=
EXTT0=
EXTT1=
EXTT2=
EXTT3=
EXTT4=
EXTT5=
EXTT6=
EXTT7=
EXTT8=
EXTT9=
PLAYORDER=
